<?xml version="1.0" standalone="no"?>
<svg viewBox="0 0 200 200" xmlns="http://www.w3.org/2000/svg">
  <path fill="#D0E2FF" d="M28.9,-57.7C33.4,-47.5,30,-31.5,31.7,-20.9C33.4,-10.3,40,-5.1,49.8,5.7C59.7,16.5,72.7,33,68.7,39.4C64.6,45.9,43.4,42.2,29.1,43.9C14.8,45.7,7.4,52.9,-0.9,54.6C-9.3,56.2,-18.6,52.2,-32.8,50.4C-47.1,48.6,-66.3,49,-74.2,41C-82,32.9,-78.5,16.5,-68.9,5.6C-59.3,-5.3,-43.5,-10.7,-37.2,-21.5C-31,-32.2,-34.1,-48.4,-29.5,-58.4C-24.9,-68.5,-12.4,-72.3,-0.1,-72.2C12.2,-72,24.5,-67.8,28.9,-57.7Z" transform="translate(100 100)" />
</svg>
